# xmcd CD database file
#
# Track frame offsets:
#	150
#	17330
#	27907
#	42630
#	56045
#	73130
#	90250
#	100337
#	113950
#	127612
#	140667
#	155150
#	170492
#	181570
#	196842
#	216185
#
# Disc length: 3035 seconds
#
# Revision: 0
# Processed by: cddbd v1.4PL0 Copyright (c) Steve Scherf et al.
# Submitted via: CDex 1.50beta10
#
DISCID=d80bd910
DTITLE=Matti Rag Paananen - Amazon
DYEAR=1990
DGENRE=Jazz
TTITLE0=Rio Pacaya
TTITLE1=Cahuana - Paratiisi
TTITLE2=Piraña-tanssi
TTITLE3=Hyvän rakkauden kukat
TTITLE4=Jättiläiskilpikonnan laulu
TTITLE5=Jaguaarin unelma
TTITLE6=Tulikärpästen yö
TTITLE7=La Capirona - puu joka kannattaa taivasta
TTITLE8=Viidakkolyriikkaa
TTITLE9=Anakondan kuolema
TTITLE10=Sademetsän äiti
TTITLE11=Eläinten suojelija
TTITLE12=Vampyyrin lento
TTITLE13=Mölyapinoita
TTITLE14=Aarniometsän lumous
TTITLE15=Amazonia
EXTD=YEAR: 1990
EXTT0=
EXTT1=
EXTT2=
EXTT3=
EXTT4=
EXTT5=
EXTT6=
EXTT7=
EXTT8=
EXTT9=
EXTT10=
EXTT11=
EXTT12=
EXTT13=
EXTT14=
EXTT15=
PLAYORDER=
